# xmcd
#
# Track frame offsets: 
#        150
#        18625
#        40196
#        75777
#        96626
#        124130
#        147818
#        172302
#        196715
#        219588
#
# Disc length: 3425 seconds
#
# Revision: 0
# Processed by: cddbd v1.5.1PL2 Copyright (c) Steve Scherf et al.
# Submitted via: ExactAudioCopy v0.95b3
#
DISCID=880d5f0a
DTITLE=Smokehouse Ramblers - Can't Get Used To It
DYEAR=2006
DGENRE=Blues
TTITLE0=Every Girl I Love
TTITLE1=Past My Prime
TTITLE2=Can't Get Used To It
TTITLE3=Madison Blues
TTITLE4=New Dog
TTITLE5=Don't Be Leavin' Me This Way
TTITLE6=Keep It Simple
TTITLE7=Come On Over Baby
TTITLE8=I'll Deliver
TTITLE9=Blues Man
EXTD=
EXTT0=
EXTT1=
EXTT2=
EXTT3=
EXTT4=
EXTT5=
EXTT6=
EXTT7=
EXTT8=
EXTT9=
PLAYORDER=
